<?xml version="1.0" encoding="UTF-8"?>
<svg version="1.1" xmlns="http://www.w3.org/2000/svg" width="720" height="424">
<path d="M0 0 C8.71585276 8.01528777 13.75146849 18.14442404 14.47265625 29.9296875 C14.92243565 44.98751953 9.91272879 59.31713432 -0.0625 70.6875 C-1.58492212 72.24817393 -3.12601156 73.79091331 -4.6875 75.3125 C-5.35136719 76.00859375 -6.01523438 76.7046875 -6.69921875 77.421875 C-19.15497715 89.66410611 -37.45314126 95.59985646 -54.62109375 95.48046875 C-60.03717262 95.18379182 -65.35273458 94.26241054 -70.6875 93.3125 C-70.95771973 94.04154541 -71.22793945 94.77059082 -71.50634766 95.52172852 C-72.65501267 98.23574045 -73.96919017 100.50643527 -75.5859375 102.96484375 C-76.14796875 103.82400391 -76.71 104.68316406 -77.2890625 105.56835938 C-77.87429687 106.45330078 -78.45953125 107.33824219 -79.0625 108.25 C-79.92875 109.57161133 -79.92875 109.57161133 -80.8125 110.91992188 C-83.09657717 114.4007929 -85.39201693 117.87297604 -87.71484375 121.328125 C-91.07735726 126.41517514 -94.29033189 131.59738888 -97.52929688 136.76367188 C-98.04943359 137.59060547 -98.56957031 138.41753906 -99.10546875 139.26953125 C-99.57750732 140.02210205 -100.0495459 140.77467285 -100.53588867 141.55004883 C-101.6875 143.3125 -101.6875 143.3125 -102.6875 144.3125 C-104.5593094 144.40636381 -106.4346806 144.42993804 -108.30883789 144.42602539 C-109.51000748 144.42594986 -110.71117706 144.42587433 -111.94874573 144.42579651 C-113.2560112 144.42063522 -114.56327667 144.41547394 -115.91015625 144.41015625 C-117.25394132 144.40829198 -118.59772707 144.40686812 -119.94151306 144.40586853 C-123.48432277 144.40204402 -127.0270917 144.39221432 -130.56988525 144.38116455 C-134.18265227 144.37094899 -137.79542584 144.3663706 -141.40820312 144.36132812 C-148.5013188 144.35059198 -155.59440674 144.33351636 -162.6875 144.3125 C-161.17359757 140.42357632 -159.4110663 136.92522174 -157.3125 133.3125 C-156.59868351 132.0782839 -155.88516159 130.84389741 -155.171875 129.609375 C-154.77935547 128.93197266 -154.38683594 128.25457031 -153.98242188 127.55664062 C-152.54693499 125.06889639 -151.1240361 122.57422234 -149.703125 120.078125 C-149.18411621 119.16675781 -148.66510742 118.25539063 -148.13037109 117.31640625 C-147.11197155 115.52762599 -146.09404097 113.73857862 -145.07666016 111.94921875 C-142.66043723 107.7133512 -140.21239236 103.50259948 -137.69140625 99.328125 C-134.60752198 94.21295167 -131.67117215 89.02184699 -128.75 83.8125 C-122.06637785 71.94132734 -115.26629882 60.13941638 -108.44042969 48.34960938 C-106.79781689 45.50363401 -105.16612067 42.65176428 -103.5390625 39.796875 C-94.18905964 23.42262376 -94.18905964 23.42262376 -88.6875 16.3125 C-88.17316406 15.63445312 -87.65882812 14.95640625 -87.12890625 14.2578125 C-66.95283013 -10.61149956 -26.51491245 -20.90485302 0 0 Z M-39.6875 35.3125 C-43.91454255 41.51815821 -47.87830785 47.84227645 -51.6875 54.3125 C-48.82302768 57.17697232 -46.23472676 57.08401134 -42.296875 57.4140625 C-38.11432973 57.25126882 -36.04154583 55.77669694 -32.6875 53.3125 C-32.06875 52.879375 -31.45 52.44625 -30.8125 52 C-28.98755832 49.26258748 -28.91790785 46.5382099 -28.6875 43.3125 C-29.0175 42.3225 -29.3475 41.3325 -29.6875 40.3125 C-30.3475 40.3125 -31.0075 40.3125 -31.6875 40.3125 C-31.89375 39.673125 -32.1 39.03375 -32.3125 38.375 C-33.58288209 35.96324923 -33.58288209 35.96324923 -36.8125 35.5625 C-37.76125 35.48 -38.71 35.3975 -39.6875 35.3125 Z " fill="#155191" transform="translate(211.6875,144.6875)"/>
<path d="M0 0 C-3.65672018 11.96744788 -8.05496172 22.99033824 -14 34 C-14.6084375 35.13566406 -15.216875 36.27132812 -15.84375 37.44140625 C-17.21318044 39.97033086 -18.59614264 42.49007321 -20 45 C-20.66 45 -21.32 45 -22 45 C-22.25265625 45.721875 -22.5053125 46.44375 -22.765625 47.1875 C-25.94929112 54.44142281 -31.82821376 60.19972182 -38 65 C-39.13695312 66.16789062 -39.13695312 66.16789062 -40.296875 67.359375 C-58.56691835 85.20698961 -82.09944 91.35479908 -106.8203125 91.1953125 C-108.53237746 91.19157569 -110.24444458 91.18873188 -111.95651245 91.18673706 C-116.43137668 91.17915312 -120.90610812 91.15955052 -125.38092041 91.1373291 C-129.95965784 91.11675691 -134.53841703 91.10771118 -139.1171875 91.09765625 C-148.07818288 91.07629896 -157.03908034 91.04222739 -166 91 C-165.45018967 89.91855209 -164.90037933 88.83710419 -164.33390808 87.72288513 C-163.60549282 86.28075562 -162.87725624 84.83853585 -162.14916992 83.39624023 C-161.78760551 82.68623619 -161.42604111 81.97623215 -161.0535202 81.24471283 C-158.97670984 77.12077033 -157.1626301 73.01872775 -155.61328125 68.66015625 C-153.298048 62.73326101 -151.03522971 57.10523459 -146 53 C-137.67913146 50.34564547 -128.98074826 51.40870332 -120.40332031 51.97583008 C-115.24081877 52.01249347 -110.82433408 50.72787987 -106 49 C-105.30285889 48.76369873 -104.60571777 48.52739746 -103.88745117 48.28393555 C-95.96166154 45.49268356 -88.65562246 42.17659525 -82 37 C-81.09507812 36.29617187 -80.19015625 35.59234375 -79.2578125 34.8671875 C-64.72495794 23.42243658 -64.72495794 23.42243658 -55.33081055 7.9152832 C-54 6 -54 6 -50.93408203 5.21044922 C-48.99057861 5.00959717 -48.99057861 5.00959717 -47.0078125 4.8046875 C-45.95604324 4.68711594 -45.95604324 4.68711594 -44.88302612 4.56716919 C-42.63183349 4.31894214 -40.3789978 4.09615968 -38.125 3.875 C-35.91473531 3.64226416 -33.70509698 3.4042503 -31.49554443 3.16485596 C-30.04616565 3.00816086 -28.59649464 2.85414543 -27.14654541 2.70281982 C-22.89281431 2.24900887 -18.70451231 1.64346398 -14.4921875 0.8828125 C-9.57550885 0.00656432 -4.98811936 -0.16627065 0 0 Z " fill="#E12320" transform="translate(293,198)"/>
<path d="M0 0 C6.03683448 6.50371197 8.51725975 12.68985725 9.3125 21.4375 C8.66356274 28.83538472 6.00093772 36.39894975 1 42 C-8.10758044 48.7031792 -16.91622907 50.37955897 -28 49 C-36.07210891 46.70534432 -41.34345324 42.6390917 -45.73046875 35.51953125 C-49.64791468 27.74490778 -49.82432589 19.67487442 -47.8359375 11.2890625 C-46.39126953 7.33310255 -43.97601261 3.96792562 -41 1 C-40.34 1 -39.68 1 -39 1 C-39 0.34 -39 -0.32 -39 -1 C-25.78776512 -8.07611789 -12.59455066 -9.80236255 0 0 Z " fill="#E12522" transform="translate(287,149)"/>
<path d="M0 0 C12 0 12 0 17 2 C18 3 18 3 18.09765625 5.06640625 C18.08605469 5.89011719 18.07445312 6.71382812 18.0625 7.5625 C18.05347656 8.38878906 18.04445313 9.21507812 18.03515625 10.06640625 C18.02355469 10.70449219 18.01195312 11.34257812 18 12 C17.01 12.33 16.02 12.66 15 13 C15.28875 13.62648437 15.5775 14.25296875 15.875 14.8984375 C16.24625 15.71570313 16.6175 16.53296875 17 17.375 C17.37125 18.18710938 17.7425 18.99921875 18.125 19.8359375 C19 22 19 22 19 24 C17.35 24 15.7 24 14 24 C13.32845067 22.71086513 12.66291141 21.41859796 12 20.125 C11.62875 19.40570313 11.2575 18.68640625 10.875 17.9453125 C10 16 10 16 10 14 C8.02 14 6.04 14 4 14 C4 17.3 4 20.6 4 24 C2.68 24 1.36 24 0 24 C0 16.08 0 8.16 0 0 Z M4 4 C4 6.31 4 8.62 4 11 C9.36090593 11.53673893 9.36090593 11.53673893 14 9.5 C14.33 9.005 14.66 8.51 15 8 C14.34 6.68 13.68 5.36 13 4 C10.03 4 7.06 4 4 4 Z " fill="#000000" transform="translate(620,214)"/>
<path d="M0 0 C4 0 4 0 5.37207031 1.28515625 C5.77006836 1.87167969 6.16806641 2.45820313 6.578125 3.0625 C7.01640625 3.69414062 7.4546875 4.32578125 7.90625 4.9765625 C8.57140625 5.97816406 8.57140625 5.97816406 9.25 7 C9.70890625 7.66773438 10.1678125 8.33546875 10.640625 9.0234375 C11.77249161 10.67407631 12.88784681 12.33601508 14 14 C14.33 9.38 14.66 4.76 15 0 C16.32 0 17.64 0 19 0 C19 7.92 19 15.84 19 24 C17.68 24 16.36 24 15 24 C12 20.78571429 12 20.78571429 12 18 C11.34 18 10.68 18 10 18 C8.7109375 16.3203125 8.7109375 16.3203125 7.375 14.125 C6.92898438 13.40570313 6.48296875 12.68640625 6.0234375 11.9453125 C5 10 5 10 5 8 C4.34 8 3.68 8 3 8 C3 13.28 3 18.56 3 24 C2.01 24 1.02 24 0 24 C0 16.08 0 8.16 0 0 Z " fill="#000000" transform="translate(409,214)"/>
<path d="M0 0 C4.65369806 1.16342452 5.30248345 2.17245928 8.125 5.875 C8.80820312 6.75929687 9.49140625 7.64359375 10.1953125 8.5546875 C11.51017634 10.33629954 12.7717419 12.15761285 14 14 C14.33 9.38 14.66 4.76 15 0 C16.32 0 17.64 0 19 0 C19 7.92 19 15.84 19 24 C13.76630839 22.95326168 13.2067695 22.55553208 10.41015625 18.38867188 C10.02730469 17.78603516 9.64445312 17.18339844 9.25 16.5625 C8.85167969 15.96373047 8.45335937 15.36496094 8.04296875 14.74804688 C6.58764637 12.54533012 5.18159434 10.36318868 4 8 C3.67 13.28 3.34 18.56 3 24 C2.01 24 1.02 24 0 24 C0 16.08 0 8.16 0 0 Z " fill="#000000" transform="translate(485,214)"/>
<path d="M0 0 C5.61 0 11.22 0 17 0 C17 1.32 17 2.64 17 4 C12.71 4 8.42 4 4 4 C4 5.98 4 7.96 4 10 C6.97 10 9.94 10 13 10 C13 11.32 13 12.64 13 14 C10.03 14 7.06 14 4 14 C4 16.31 4 18.62 4 21 C8.62 21 13.24 21 18 21 C18 21.99 18 22.98 18 24 C12.06 24 6.12 24 0 24 C0 16.08 0 8.16 0 0 Z " fill="#010101" transform="translate(585,214)"/>
<path d="M0 0 C2.63671875 1.05078125 2.63671875 1.05078125 4.3671875 4.5078125 C4.873574 5.95254248 5.35851557 7.40492856 5.82421875 8.86328125 C6.31602012 10.30786751 6.80946239 11.75189637 7.3046875 13.1953125 C7.53075684 13.87287598 7.75682617 14.55043945 7.98974609 15.24853516 C8.63933058 17.17459208 8.63933058 17.17459208 9.8125 19.375 C10.63671875 21.05078125 10.63671875 21.05078125 10.63671875 24.05078125 C9.31671875 24.05078125 7.99671875 24.05078125 6.63671875 24.05078125 C6.32734375 23.08140625 6.01796875 22.11203125 5.69921875 21.11328125 C4.01590358 17.90132677 4.01590358 17.90132677 1.43359375 17.4296875 C-0.84266209 17.19705129 -3.07571524 17.06037272 -5.36328125 17.05078125 C-6.02328125 19.36078125 -6.68328125 21.67078125 -7.36328125 24.05078125 C-8.68328125 24.05078125 -10.00328125 24.05078125 -11.36328125 24.05078125 C-10.37000163 18.28975947 -7.02415136 0.15093218 0 0 Z M-1.36328125 7.05078125 C-2.02328125 9.36078125 -2.68328125 11.67078125 -3.36328125 14.05078125 C-1.38328125 14.05078125 0.59671875 14.05078125 2.63671875 14.05078125 C1.97671875 11.74078125 1.31671875 9.43078125 0.63671875 7.05078125 C-0.02328125 7.05078125 -0.68328125 7.05078125 -1.36328125 7.05078125 Z " fill="#000000" transform="translate(666.36328125,213.94921875)"/>
<path d="M0 0 C1.32 0 2.64 0 4 0 C4.23074219 0.58265625 4.46148437 1.1653125 4.69921875 1.765625 C7.06899372 7.72284588 9.52498457 13.63671093 12.046875 19.53125 C13 22 13 22 13 24 C11.35 24 9.7 24 8 24 C7.34 22.02 6.68 20.04 6 18 C3.03 17.67 0.06 17.34 -3 17 C-3.309375 17.78375 -3.61875 18.5675 -3.9375 19.375 C-5 22 -5 22 -6 24 C-7.32 24 -8.64 24 -10 24 C-8.27276525 18.63648156 -6.41872421 13.33794909 -4.4375 8.0625 C-4.02371094 6.96035156 -3.60992187 5.85820312 -3.18359375 4.72265625 C-2 2 -2 2 0 0 Z M1 6 C-0.485 9.96 -0.485 9.96 -2 14 C-0.02 14 1.96 14 4 14 C3.55296014 9.52116304 3.55296014 9.52116304 1 6 Z " fill="#000000" transform="translate(455,214)"/>
<path d="M0 0 C3 1.5 3 1.5 5 3 C4.67 4.32 4.34 5.64 4 7 C2.9790625 6.505 2.9790625 6.505 1.9375 6 C-1.59199518 4.79846973 -4.2934027 4.65679655 -8 5 C-10.4309584 6.53960699 -10.88437865 7.66202991 -11.8125 10.375 C-12.03751456 13.5252038 -11.49549186 15.23334006 -10 18 C-6.10748944 20.59500704 -4.4869469 19.86590203 0 19 C1.33917261 18.69096017 2.67653254 18.37057089 4 18 C4 19.32 4 20.64 4 22 C1.26607608 24.73392392 -0.92490699 24.69319902 -4.6796875 25.03125 C-8.10860371 24.98506931 -10.2062498 23.92901799 -13 22 C-15.91790717 18.86030416 -16.38834841 16.74751083 -16.3125 12.5 C-16.30863281 11.5615625 -16.30476562 10.623125 -16.30078125 9.65625 C-15.99159562 6.92577948 -15.48736949 5.29450856 -14 3 C-9.18929206 -0.20713863 -5.59831486 -0.53317284 0 0 Z " fill="#000000" transform="translate(539,214)"/>
<path d="M0 0 C5.94 0 11.88 0 18 0 C18 1.32 18 2.64 18 4 C13.71 4 9.42 4 5 4 C5 5.98 5 7.96 5 10 C7.64 10 10.28 10 13 10 C13 11.32 13 12.64 13 14 C10.36 14 7.72 14 5 14 C5 17.3 5 20.6 5 24 C3.35 24 1.7 24 0 24 C0 16.08 0 8.16 0 0 Z " fill="#000000" transform="translate(350,214)"/>
<path d="M0 0 C1.65 0 3.3 0 5 0 C5 7.92 5 15.84 5 24 C3.35 24 1.7 24 0 24 C0 16.08 0 8.16 0 0 Z " fill="#000000" transform="translate(385,214)"/>
<path d="M0 0 C1.32 0 2.64 0 4 0 C4 7.92 4 15.84 4 24 C2.68 24 1.36 24 0 24 C0 16.08 0 8.16 0 0 Z " fill="#000000" transform="translate(562,214)"/>
<path d="M0 0 C9.24 0 18.48 0 28 0 C24.25043414 1.87478293 22.90708691 2.25897973 18.9375 2.34375 C17.97585937 2.37339844 17.01421875 2.40304688 16.0234375 2.43359375 C13 2.5 13 2.5 9.9765625 2.56640625 C9.01492187 2.59605469 8.05328125 2.62570313 7.0625 2.65625 C6.18722656 2.67494141 5.31195313 2.69363281 4.41015625 2.71289062 C1.86658846 3.01589262 0.20055074 3.72102562 -2 5 C-1.34 3.35 -0.68 1.7 0 0 Z " fill="#E86B69" transform="translate(147,251)"/>
<path d="M0 0 C0.66 0.33 1.32 0.66 2 1 C0.71937515 2.7074998 -0.61767557 4.37373596 -2 6 C-2.66 6 -3.32 6 -4 6 C-4 6.66 -4 7.32 -4 8 C-4.66 7.67 -5.32 7.34 -6 7 C-4.02 4.69 -2.04 2.38 0 0 Z " fill="#6C90B6" transform="translate(130,153)"/>
</svg>
